<svg width="24" height="15" viewBox="0 0 24 15" fill="none" xmlns="http://www.w3.org/2000/svg">
<path d="M19.6311 8.60739C19.2486 8.12438 19.358 7.90949 19.6311 7.47773C19.636 7.4728 22.7933 3.1099 23.1186 1.6303L23.1206 1.62932C23.2823 1.09012 23.1206 0.693848 22.3389 0.693848H19.7523C19.0938 0.693848 18.7902 1.03393 18.6276 1.41443C18.6276 1.41443 17.3106 4.56683 15.4476 6.61028C14.8463 7.20074 14.5683 7.39 14.24 7.39C14.0784 7.39 13.827 7.20074 13.827 6.66154V1.62932C13.827 0.98267 13.6427 0.693848 13.0976 0.693848H9.03039C8.61737 0.693848 8.37192 0.995485 8.37192 1.27642C8.37192 1.88955 9.30344 2.03052 9.40005 3.75557V7.49843C9.40005 8.31857 9.2512 8.46939 8.92098 8.46939C8.04169 8.46939 5.90756 5.30417 4.64285 1.68156C4.38754 0.978727 4.13815 0.694833 3.47474 0.694833H0.887169C0.148847 0.694833 0 1.03491 0 1.41541C0 2.08769 0.879283 5.43034 4.08886 9.84647C6.22793 12.8609 9.24036 14.4943 11.9807 14.4943C13.6279 14.4943 13.829 14.1315 13.829 13.5075C13.829 10.6272 13.6801 10.3551 14.5052 10.3551C14.8877 10.3551 15.5462 10.5444 17.0839 11.9984C18.8415 13.7224 19.1303 14.4943 20.1141 14.4943H22.7007C23.438 14.4943 23.8116 14.1315 23.5967 13.4158C23.1048 11.9106 19.7809 8.8144 19.6311 8.60739V8.60739Z" fill="white"/>
</svg>
